<svg xmlns="http://www.w3.org/2000/svg" width="25" height="25" id="tree"><g fill="#fff" transform="translate(3.996 -1031.366)"><circle cx="657.054" cy="437.094" r="15.268" fill="#9257a2" fill-rule="evenodd" transform="translate(-529.435 686.011) scale(.81871)"></circle><path fill="#6c4676" style="line-height:normal;text-indent:0;text-align:start;text-decoration-line:none;text-decoration-style:solid;text-decoration-color:#000;text-transform:none;block-progression:tb;isolation:auto;mix-blend-mode:normal" d="M16.377 24.375a12.5 12.5 0 0 0 .99-.361 12.5 12.5 0 0 0 1.125-.543 12.5 12.5 0 0 0 1.067-.655 12.5 12.5 0 0 0 .994-.755 12.5 12.5 0 0 0 .914-.852 12.5 12.5 0 0 0 .824-.94 12.5 12.5 0 0 0 .727-1.015 12.5 12.5 0 0 0 .623-1.084 12.5 12.5 0 0 0 .51-1.14 12.5 12.5 0 0 0 .035-.104l-9.33-9.328c-.032-.031-.061-.052-.092-.082a7.82 7.82 0 0 0-.45-.397c-.107-.09-.21-.183-.314-.262a8.126 8.126 0 0 0-.4-.283c-.084-.056-.156-.111-.23-.158-.387-.244-.653-.371-.653-.371l-.219-.106-.219.108s-3.908 1.855-3.908 5.496c0 .212.015.418.04.617.005.049.015.095.023.143.02.143.043.284.076.42.02.086.047.168.072.252.027.093.054.187.086.277.03.084.064.163.098.244a5.667 5.667 0 0 0 .537.998l.07.104c.101.143.21.266.318.396.115.137.226.272.344.395.028.028.053.064.08.091L12 17.365v2.633l4.377 4.377z" color="#000" font-family="sans-serif" font-weight="400" transform="translate(-3.996 1031.366)"></path><path d="m7.498.95-.219.107S3.371 2.912 3.371 6.553c0 3.223 2.926 4.961 3.629 5.338v3.115h1v-3.113c.709-.376 3.627-2.098 3.627-5.34 0-3.668-3.91-5.498-3.91-5.498L7.498.949zm.004 1.161c.382.202 3.125 1.699 3.125 4.442 0 2.216-1.737 3.575-2.627 4.138V6.006H7v4.68c-.891-.573-2.629-1.944-2.629-4.133 0-2.714 2.752-4.238 3.131-4.442z" color="#000" font-family="sans-serif" font-weight="400" overflow="visible" transform="translate(1.005 1036.357)" style="line-height:normal;text-indent:0;text-align:start;text-decoration-line:none;text-decoration-style:solid;text-decoration-color:#000;text-transform:none;block-progression:tb;isolation:auto;mix-blend-mode:normal"></path></g></svg>